<svg xmlns="http://www.w3.org/2000/svg" viewBox="0 0 64 64" role="img" aria-label="QQYY">
  <defs>
    <radialGradient id="screen" cx="36%" cy="24%" r="78%">
      <stop offset="0" stop-color="#123c20"/>
      <stop offset="0.58" stop-color="#041208"/>
      <stop offset="1" stop-color="#000402"/>
    </radialGradient>
    <linearGradient id="signal" x1="13" y1="14" x2="51" y2="50">
      <stop offset="0" stop-color="#dfffe9"/>
      <stop offset="0.45" stop-color="#00ff6a"/>
      <stop offset="1" stop-color="#59f6ff"/>
    </linearGradient>
  </defs>
  <rect width="64" height="64" rx="14" fill="url(#screen)"/>
  <g fill="#00ff6a" font-family="Courier New, monospace" font-size="8" font-weight="700" opacity="0.48">
    <text x="12" y="18">0</text>
    <text x="12" y="29">1</text>
    <text x="12" y="42">+</text>
    <text x="22" y="14">1</text>
    <text x="22" y="26">&gt;</text>
    <text x="22" y="53">0</text>
    <text x="42" y="16">+</text>
    <text x="42" y="38">1</text>
    <text x="42" y="51">0</text>
    <text x="52" y="24">1</text>
    <text x="52" y="36">0</text>
    <text x="52" y="48">&lt;</text>
  </g>
  <path d="M8 15h48M8 49h48M16 8v48M48 8v48" stroke="#00ff6a" stroke-width="1.5" opacity="0.14"/>
  <rect x="6" y="6" width="52" height="52" rx="11" fill="none" stroke="#00ff6a" stroke-width="2.5"/>
  <path d="M32 18v28" stroke="url(#signal)" stroke-width="3.5" stroke-linecap="round" opacity="0.82"/>
  <path d="M18 32h28" stroke="url(#signal)" stroke-width="3.5" stroke-linecap="round" opacity="0.82"/>
  <circle cx="32" cy="32" r="5" fill="#dfffe9"/>
  <circle cx="32" cy="32" r="13" fill="none" stroke="#59f6ff" stroke-width="2" opacity="0.76"/>
</svg>
